<?xml version="1.0" encoding="utf-8"?>
<!-- Generator: Adobe Illustrator 16.0.0, SVG Export Plug-In . SVG Version: 6.00 Build 0)  -->
<!DOCTYPE svg PUBLIC "-//W3C//DTD SVG 1.1//EN" "http://www.w3.org/Graphics/SVG/1.1/DTD/svg11.dtd">
<svg version="1.1" id="Livello_1" xmlns="http://www.w3.org/2000/svg" xmlns:xlink="http://www.w3.org/1999/xlink" x="0px" y="0px"
	 width="1280px" height="800px" viewBox="0 0 1280 800" enable-background="new 0 0 1280 800" xml:space="preserve">
<circle fill="none" stroke="#000000" stroke-width="16" stroke-miterlimit="10" cx="380.167" cy="481.167" r="49.5"/>
<rect x="383.184" y="273.267" transform="matrix(0.7071 -0.7071 0.7071 0.7071 -91.2624 361.0412)" width="14" height="34.834"/>
<rect x="363.004" y="273.345" transform="matrix(0.7071 0.7071 -0.7071 0.7071 313.7843 -176.5477)" width="14" height="34.304"/>
<rect x="302" y="541.002" transform="matrix(-0.7071 -0.7071 0.7071 -0.7071 136.8176 1161.6746)" width="14" height="23"/>
<rect x="373" y="565" width="14" height="23"/>
<polygon points="373,277.602 380.041,270.667 387.082,277.683 387,388 373,388 "/>
<rect x="273" y="474" width="23" height="14"/>
<rect x="463" y="474" width="23" height="14"/>
<rect x="444" y="541" transform="matrix(0.7071 -0.7071 0.7071 0.7071 -258.5817 480.7287)" width="14" height="23"/>
<rect x="444" y="398.001" transform="matrix(0.7071 0.7071 -0.7071 0.7071 421.6554 -198.9652)" width="14" height="23"/>
<rect x="302.001" y="398" transform="matrix(-0.7071 0.7071 -0.7071 -0.7071 817.057 480.5639)" width="14" height="23"/>
</svg>
