<?xml version="1.0" encoding="utf-8"?>
<!-- Generator: Adobe Illustrator 16.0.0, SVG Export Plug-In . SVG Version: 6.00 Build 0)  -->
<!DOCTYPE svg PUBLIC "-//W3C//DTD SVG 1.1//EN" "http://www.w3.org/Graphics/SVG/1.1/DTD/svg11.dtd">
<svg version="1.1" id="newDaySvg" xmlns="http://www.w3.org/2000/svg" xmlns:xlink="http://www.w3.org/1999/xlink" x="0px" y="0px"
	 width="213px" height="317.333px" viewBox="0 0 213 317.333" enable-background="new 0 0 213 317.333" xml:space="preserve">
<circle fill="none" stroke="#000000" stroke-width="16" stroke-miterlimit="10" cx="107.167" cy="210.5" r="49.5"/>
<rect x="29" y="270.335" transform="matrix(-0.7071 -0.7071 0.7071 -0.7071 -137.8324 506.5779)" width="14" height="23"/>
<rect x="100" y="294.333" width="14" height="23"/>
<rect y="203.333" width="23" height="14"/>
<rect x="190" y="203.333" width="23" height="14"/>
<rect x="171" y="270.334" transform="matrix(0.7071 -0.7071 0.7071 0.7071 -147.1514 208.4121)" width="14" height="23"/>
<rect x="171" y="127.334" transform="matrix(0.7071 0.7071 -0.7071 0.7071 150.3055 -85.2015)" width="14" height="23"/>
<polygon id="arrowSvg" points="134.45,27.383 109.818,2.752 109.811,2.76 107.041,0 104.214,2.784 104.183,2.752 100.011,6.924 100,6.935 
	100,6.935 79.926,27.01 89.826,36.909 100,26.734 100,117.333 114,117.333 114.067,26.8 124.55,37.283 "/>
<rect x="29.001" y="127.334" transform="matrix(-0.7071 0.7071 -0.7071 -0.7071 159.6268 211.5474)" width="14" height="23"/>
</svg>
